<svg width="26" height="25" viewBox="0 0 26 25" fill="none" xmlns="http://www.w3.org/2000/svg">
<path d="M20.5833 13.5417V18.75C20.5833 19.3229 20.0958 19.7917 19.5 19.7917H6.5C5.90417 19.7917 5.41667 19.3229 5.41667 18.75V13.5417C5.41667 12.9688 4.92917 12.5 4.33333 12.5C3.7375 12.5 3.25 12.9688 3.25 13.5417V19.7917C3.25 20.9375 4.225 21.875 5.41667 21.875H20.5833C21.775 21.875 22.75 20.9375 22.75 19.7917V13.5417C22.75 12.9688 22.2625 12.5 21.6667 12.5C21.0708 12.5 20.5833 12.9688 20.5833 13.5417ZM14.0833 13.1979L16.12 11.2396C16.5425 10.8333 17.225 10.8333 17.6475 11.2396C18.07 11.6458 18.07 12.3021 17.6475 12.7083L13.7583 16.4479C13.3358 16.8542 12.6533 16.8542 12.2308 16.4479L8.34167 12.7083C7.91917 12.3021 7.91917 11.6458 8.34167 11.2396C8.76417 10.8333 9.44667 10.8333 9.86917 11.2396L11.9167 13.1979V4.16667C11.9167 3.59375 12.4042 3.125 13 3.125C13.5958 3.125 14.0833 3.59375 14.0833 4.16667V13.1979Z" fill="#FF6D43"/>
</svg>
