<svg width="38" height="38" viewBox="0 0 38 38" fill="none" xmlns="http://www.w3.org/2000/svg">
<g id="format-list-bulleted">
<path id="Vector" d="M6.33337 16.625C5.01921 16.625 3.95837 17.6858 3.95837 19C3.95837 20.3142 5.01921 21.375 6.33337 21.375C7.64754 21.375 8.70837 20.3142 8.70837 19C8.70837 17.6858 7.64754 16.625 6.33337 16.625ZM6.33337 7.125C5.01921 7.125 3.95837 8.18583 3.95837 9.5C3.95837 10.8142 5.01921 11.875 6.33337 11.875C7.64754 11.875 8.70837 10.8142 8.70837 9.5C8.70837 8.18583 7.64754 7.125 6.33337 7.125ZM6.33337 26.125C5.01921 26.125 3.95837 27.2017 3.95837 28.5C3.95837 29.7983 5.03504 30.875 6.33337 30.875C7.63171 30.875 8.70837 29.7983 8.70837 28.5C8.70837 27.2017 7.64754 26.125 6.33337 26.125ZM11.0834 30.0833H33.25V26.9167H11.0834V30.0833ZM11.0834 20.5833H33.25V17.4167H11.0834V20.5833ZM11.0834 7.91667V11.0833H33.25V7.91667H11.0834Z" fill="black" fill-opacity="0.54"/>
</g>
</svg>
