<svg width="24" height="24" viewBox="0 0 24 24" fill="none" xmlns="http://www.w3.org/2000/svg">
<path id="Vector" d="M0 2.57143C0 1.88944 0.270918 1.23539 0.753154 0.753154C1.23539 0.270918 1.88944 0 2.57143 0H7.71429C8.39627 0 9.05032 0.270918 9.53256 0.753154C10.0148 1.23539 10.2857 1.88944 10.2857 2.57143V7.71429C10.2857 8.39627 10.0148 9.05032 9.53256 9.53256C9.05032 10.0148 8.39627 10.2857 7.71429 10.2857H2.57143C1.88944 10.2857 1.23539 10.0148 0.753154 9.53256C0.270918 9.05032 0 8.39627 0 7.71429V2.57143ZM13.7143 2.57143C13.7143 1.88944 13.9852 1.23539 14.4674 0.753154C14.9497 0.270918 15.6037 0 16.2857 0H21.4286C22.1106 0 22.7646 0.270918 23.2468 0.753154C23.7291 1.23539 24 1.88944 24 2.57143V7.71429C24 8.39627 23.7291 9.05032 23.2468 9.53256C22.7646 10.0148 22.1106 10.2857 21.4286 10.2857H16.2857C15.6037 10.2857 14.9497 10.0148 14.4674 9.53256C13.9852 9.05032 13.7143 8.39627 13.7143 7.71429V2.57143ZM0 16.2857C0 15.6037 0.270918 14.9497 0.753154 14.4674C1.23539 13.9852 1.88944 13.7143 2.57143 13.7143H7.71429C8.39627 13.7143 9.05032 13.9852 9.53256 14.4674C10.0148 14.9497 10.2857 15.6037 10.2857 16.2857V21.4286C10.2857 22.1106 10.0148 22.7646 9.53256 23.2468C9.05032 23.7291 8.39627 24 7.71429 24H2.57143C1.88944 24 1.23539 23.7291 0.753154 23.2468C0.270918 22.7646 0 22.1106 0 21.4286V16.2857ZM13.7143 16.2857C13.7143 15.6037 13.9852 14.9497 14.4674 14.4674C14.9497 13.9852 15.6037 13.7143 16.2857 13.7143H21.4286C22.1106 13.7143 22.7646 13.9852 23.2468 14.4674C23.7291 14.9497 24 15.6037 24 16.2857V21.4286C24 22.1106 23.7291 22.7646 23.2468 23.2468C22.7646 23.7291 22.1106 24 21.4286 24H16.2857C15.6037 24 14.9497 23.7291 14.4674 23.2468C13.9852 22.7646 13.7143 22.1106 13.7143 21.4286V16.2857Z" fill="#FF6D43"/>
</svg>
