<svg width="18" height="17" viewBox="0 0 18 17" fill="none" xmlns="http://www.w3.org/2000/svg">
<path d="M6.54545 16.3636H13.9091C14.5882 16.3636 15.1691 15.9545 15.4145 15.3655L17.8855 9.59727C17.9591 9.40909 18 9.21273 18 9V7.36364C18 6.46364 17.2636 5.72727 16.3636 5.72727H11.2009L11.9782 1.98818L12.0027 1.72636C12.0027 1.39091 11.8636 1.08 11.6427 0.859091L10.7755 0L5.38364 5.39182C5.08909 5.68636 4.90909 6.09545 4.90909 6.54545V14.7273C4.90909 15.6273 5.64545 16.3636 6.54545 16.3636ZM6.54545 6.54545L10.0964 2.99455L9 7.36364H16.3636V9L13.9091 14.7273H6.54545V6.54545ZM0 6.54545H3.27273V16.3636H0V6.54545Z" fill="#FF6D43"/>
</svg>
