<svg width="208" height="37" viewBox="0 0 208 37" fill="none" xmlns="http://www.w3.org/2000/svg">
<g id="header left side">
<path id="Vector" d="M101.315 5.73077V26H103.903V8.23077H113.448C118.162 8.23077 121.523 12.4231 121.523 18.5C121.523 24.5769 118.162 28.7692 113.448 28.7692H99.6916C98.6097 28.7692 97.8755 28.0769 97.8755 26.9615V4.34615C97.8755 3.26923 98.5711 2.53846 99.6916 2.53846H113.448C121.678 2.53846 127.628 9.23077 127.628 18.5C127.628 27.7692 121.678 34.4615 113.448 34.4615H95.2094V36.9615H113.448C122.76 36.9615 130.372 29 130.372 18.5C130.372 8 122.798 0.0384609 113.448 0.0384609H99.6916C96.9482 0.0384609 95.248 1.84616 95.248 4.30769V26.9615C95.248 29.4615 96.9868 31.2308 99.6916 31.2308H113.448C119.398 31.2308 124.267 25.7692 124.267 18.4615C124.267 11.1538 119.398 5.69231 113.448 5.69231H101.315V5.73077ZM27.7436 20.0769H4.44362C1.70017 20.0769 0 21.8846 0 24.3462V32.6923C0 35.1923 1.73881 36.9615 4.44362 36.9615H29.1733C29.9461 36.9615 30.4871 36.4231 30.4871 35.6538V30.1154C30.4871 29.3462 29.9461 28.8077 29.1733 28.8077H8.57812V25.3846H6.0665V31.3077H27.8982V34.5H4.44362C3.36169 34.5 2.62753 33.8077 2.62753 32.6923V24.3462C2.62753 23.2692 3.32305 22.5385 4.44362 22.5385H29.0188C29.7916 22.5385 30.3325 22 30.3325 21.2308V15.6923C30.3325 14.9231 29.7916 14.3846 29.0188 14.3846H4.44362C3.36169 14.3846 2.62753 13.6923 2.62753 12.5769V4.34615C2.62753 3.26923 3.32305 2.53846 4.44362 2.53846H28.0141V5.73077H6.0665V11.5769H8.57812V8.23077H29.1733C29.9461 8.23077 30.4871 7.69231 30.4871 6.92308V1.46154C30.4871 0.692309 29.9461 0.0769248 29.1733 0.0769248H4.44362C1.70017 0.0769248 0 1.88462 0 4.34615V12.6154C0 15.1154 1.73881 16.8846 4.44362 16.8846H27.7823V20.0769H27.7436ZM66.577 2.53846H70.4024L57.6511 34.5385L44.4362 1.30769C44.0498 0.384616 43.5088 0.0769248 42.4655 0.0769248H36.0513C35.2785 0.0769248 34.8148 0.615385 34.8148 1.30769C34.8148 1.53846 34.8921 1.84615 34.9693 2.07692L48.7252 36.9615H51.9324L38.1765 2.53846H41.9246L55.2168 35.8846C55.6032 36.8077 55.9896 36.9615 56.9556 36.9615H58.3466C59.274 36.9615 59.6604 36.8077 60.0855 35.8846L73.5322 2.07692C73.6095 1.84615 73.6868 1.53846 73.6868 1.30769C73.6868 0.615385 73.2231 0.0769248 72.4503 0.0769248H66.1133C65.1087 0.0769248 64.5291 0.384616 64.1427 1.30769L55.9896 22.1923L57.4579 25.7692L66.577 2.53846ZM163.641 20.0769H140.302C137.559 20.0769 135.859 21.8846 135.859 24.3462V32.6923C135.859 35.1923 137.598 36.9615 140.302 36.9615H165.032C165.805 36.9615 166.346 36.4231 166.346 35.6538V30.1154C166.346 29.3462 165.805 28.8077 165.032 28.8077H144.437V25.3846H141.925V31.3077H163.757V34.5H140.264C139.182 34.5 138.448 33.8077 138.448 32.6923V24.3462C138.448 23.2692 139.143 22.5385 140.264 22.5385H164.878C165.65 22.5385 166.191 22 166.191 21.2308V15.6923C166.191 14.9231 165.65 14.3846 164.878 14.3846H140.302C139.221 14.3846 138.486 13.6923 138.486 12.5769V4.34615C138.486 3.26923 139.182 2.53846 140.302 2.53846H163.873V5.73077H141.964V11.5769H144.476V8.23077H165.071C165.844 8.23077 166.385 7.69231 166.385 6.92308V1.46154C166.385 0.692309 165.844 0.0769248 165.071 0.0769248H140.341C137.598 0.0769248 135.897 1.88462 135.897 4.34615V12.6154C135.897 15.1154 137.636 16.8846 140.341 16.8846H163.68V20.0769H163.641ZM87.4813 0.0384609H80.0624C79.2896 0.0384609 78.7487 0.576923 78.7487 1.34615V35.6154C78.7487 36.3846 79.2896 36.9231 80.0624 36.9231H86.1676C86.9404 36.9231 87.4813 36.3846 87.4813 35.6154V5.34615H84.8152V34.5H81.3762V2.57692H87.4813V0.0384609ZM181.686 0.0384609L200.62 26.3077C201.083 26.9231 201.934 26.6923 201.934 26.0769V2.53846H205.372V34.4615H202.243L178.981 1.73077C177.977 0.269231 177.397 0 176.315 0H174.847C174.074 0 173.533 0.538462 173.533 1.30769V35.5769C173.533 36.3462 174.074 36.8846 174.847 36.8846H180.952C181.725 36.8846 182.266 36.3462 182.266 35.5769V15.9615L179.599 12.3077V34.4231H176.161V2.61539L199.345 35.2692C200.349 36.6538 201.006 37 202.32 37H206.686C207.459 37 208 36.4615 208 35.6923V1.38461C208 0.615384 207.459 0.0769248 206.686 0.0769248H200.658C199.886 0.0769248 199.345 0.615384 199.345 1.38461V20.5385L185.164 0.0384609H181.686Z" fill="#FF6D43"/>
</g>
</svg>
